<svg xmlns="http://www.w3.org/2000/svg" viewBox="0 0 1483 165">
    <path d="M7.7,108.4l46.5-2.9c1,7.5,3.1,13.3,6.1,17.2c5,6.4,12.2,9.6,21.6,9.6c7,0,12.3-1.6,16.1-4.9c3.8-3.3,5.7-7.1,5.7-11.4c0-4.1-1.8-7.8-5.4-11c-3.6-3.2-11.9-6.3-25-9.2c-21.4-4.8-36.7-11.2-45.8-19.2c-9.2-8-13.8-18.1-13.8-30.5c0-8.1,2.4-15.8,7.1-23c4.7-7.2,11.8-12.9,21.2-17C51.3,2.1,64.3,0,80.7,0c20.2,0,35.6,3.8,46.2,11.3c10.6,7.5,16.9,19.5,18.9,35.8l-46,2.7c-1.2-7.1-3.8-12.3-7.7-15.5c-3.9-3.2-9.3-4.9-16.2-4.9c-5.7,0-10,1.2-12.8,3.6c-2.9,2.4-4.3,5.3-4.3,8.8c0,2.5,1.2,4.8,3.6,6.8c2.3,2.1,7.8,4,16.4,5.8c21.3,4.6,36.6,9.3,45.9,14c9.2,4.7,16,10.5,20.2,17.5c4.2,7,6.3,14.8,6.3,23.4c0,10.1-2.8,19.5-8.4,28c-5.6,8.6-13.4,15-23.5,19.5c-10.1,4.4-22.7,6.6-38,6.6c-26.9,0-45.5-5.2-55.8-15.5S9,124.4,7.7,108.4z" fill=var(--text-color)/>
    <path d="M278.4,2.7h48.7v94.1c0,9.3-1.5,18.2-4.4,26.4c-2.9,8.3-7.5,15.5-13.7,21.8c-6.2,6.2-12.7,10.6-19.6,13.1c-9.5,3.5-20.9,5.3-34.2,5.3c-7.7,0-16.1-0.5-25.2-1.6c-9.1-1.1-16.7-3.2-22.8-6.4c-6.1-3.2-11.7-7.7-16.8-13.6c-5.1-5.9-8.5-12-10.4-18.2c-3-10.1-4.5-19-4.5-26.7V2.7h48.7v96.4c0,8.6,2.4,15.3,7.2,20.2c4.8,4.8,11.4,7.3,19.9,7.3c8.4,0,15-2.4,19.8-7.2c4.8-4.8,7.2-11.5,7.2-20.3V2.7z" fill=var(--text-color)/>
    <path d="M359.3,2.7h81.2c17.7,0,30.9,4.2,39.7,12.6c8.8,8.4,13.2,20.4,13.2,35.9c0,16-4.8,28.4-14.4,37.4c-9.6,9-24.2,13.5-43.9,13.5h-26.7v58.6h-49V2.7z M408.3,70.1h12c9.4,0,16-1.6,19.8-4.9c3.8-3.3,5.7-7.5,5.7-12.6c0-5-1.7-9.2-5-12.6c-3.3-3.4-9.5-5.2-18.6-5.2h-13.9V70.1z" fill=var(--text-color)/>
    <path d="M518.8,2.7h130.9v33.7h-81.9v25.1h76v32.2h-76v31.2H652v35.8H518.8V2.7z" fill=var(--text-color)/>
    <path d="M679,160.7V2.7h81.4c15.1,0,26.6,1.3,34.6,3.9S809.3,14,814.2,21c4.9,7,7.3,15.5,7.3,25.6c0,8.8-1.9,16.3-5.6,22.7s-8.9,11.5-15.4,15.5c-4.2,2.5-9.9,4.6-17.1,6.3c5.8,1.9,10.1,3.9,12.7,5.8c1.8,1.3,4.4,4.1,7.8,8.3c3.4,4.2,5.7,7.5,6.8,9.8l23.6,45.8h-55.2l-26.1-48.3c-3.3-6.3-6.3-10.3-8.8-12.2c-3.5-2.4-7.5-3.7-12-3.7H728v64.1H679z M728,66.7h20.6c2.2,0,6.5-0.7,12.9-2.2c3.2-0.6,5.9-2.3,7.9-5c2-2.7,3.1-5.7,3.1-9.2c0-5.1-1.6-9-4.9-11.7c-3.2-2.7-9.3-4.1-18.2-4.1H728V66.7z" fill=var(--text-color)/>
    <path d="M850.2,2.7H971v34h-71.7v27.6h61.2v31.9h-61.2v64.6h-49V2.7z" fill=var(--text-color)/>
    <path d="M997.3,2.7h48.8v119.1h76.2v38.9h-125V2.7z" fill=var(--text-color)/>
    <path d="M1241.6,2.7h48.7v94.1c0,9.3-1.5,18.2-4.4,26.4c-2.9,8.3-7.5,15.5-13.7,21.8c-6.2,6.2-12.7,10.6-19.6,13.1c-9.5,3.5-20.9,5.3-34.2,5.3c-7.7,0-16.1-0.5-25.2-1.6c-9.1-1.1-16.7-3.2-22.8-6.4c-6.1-3.2-11.7-7.7-16.8-13.6c-5.1-5.9-8.5-12-10.4-18.2c-3-10.1-4.5-19-4.5-26.7V2.7h48.7v96.4c0,8.6,2.4,15.3,7.2,20.2c4.8,4.8,11.4,7.3,19.9,7.3c8.4,0,15-2.4,19.8-7.2c4.8-4.8,7.2-11.5,7.2-20.3V2.7z" fill=var(--text-color)/>
    <path d="M1316.5,81.8c0-25.8,7.2-45.9,21.6-60.3c14.4-14.4,34.4-21.6,60-21.6c26.3,0,46.6,7.1,60.8,21.2c14.2,14.1,21.3,33.9,21.3,59.3c0,18.5-3.1,33.6-9.3,45.4c-6.2,11.8-15.2,21-26.9,27.6s-26.4,9.9-43.9,9.9c-17.8,0-32.6-2.8-44.2-8.5c-11.7-5.7-21.1-14.7-28.4-26.9C1320.2,115.6,1316.5,100.3,1316.5,81.8z M1365.4,82c0,16,3,27.4,8.9,34.4c5.9,7,14,10.5,24.2,10.5c10.5,0,18.6-3.4,24.4-10.2c5.7-6.8,8.6-19.1,8.6-36.8c0-14.9-3-25.7-9-32.6c-6-6.9-14.1-10.3-24.4-10.3c-9.8,0-17.8,3.5-23.7,10.5C1368.3,54.4,1365.4,65.9,1365.4,82z" fill=var(--text-color)/>
</svg>
